<svg width="60" height="60" viewBox="0 0 60 60" fill="none" xmlns="http://www.w3.org/2000/svg">
  <path d="M27.1341 11.6666H16.0611C15.4746 11.6666 15 12.1412 15 12.7277V15.257C15 15.8435 15.4746 16.318 16.0611 16.318H26.7183C35.3431 16.318 41.6007 22.455 41.6007 29.9994C41.6007 33.1412 40.5357 36.038 38.7482 38.3502C39.0791 37.1734 39.2566 35.9328 39.2566 34.6509C39.2566 27.1065 34.4971 20.9695 24.6039 20.9695H16.0611C15.4746 20.9695 15 21.4441 15 22.0306V24.5599C15 25.1464 15.4746 25.6209 16.0611 25.6209H24.4351C30.7592 25.6499 34.3515 29.6714 34.3515 34.6509C34.3515 39.6303 30.7592 43.6817 24.4351 43.6817H20.1714V31.3345C20.1714 30.748 19.6968 30.2734 19.1103 30.2734H16.0611C15.4746 30.2734 15 30.748 15 31.3345V47.2721C15 47.8586 15.4746 48.3332 16.0611 48.3332H25.5762C25.5772 48.3332 25.5772 48.3332 25.5781 48.3332H27.1351C38.5572 48.3332 46.5077 40.1087 46.5077 30.0004C46.5077 19.892 39.2576 11.6338 27.1341 11.6666Z" fill="#212529"/>
</svg>
