<svg width="334" height="89" viewBox="0 0 334 89" fill="none" xmlns="http://www.w3.org/2000/svg">
<path fill-rule="evenodd" clip-rule="evenodd" d="M27.3275 68.4006C24.7811 68.4006 22.2348 68.146 19.6884 67.764C17.142 67.2547 14.723 66.6181 12.4312 65.7269C10.1395 64.8357 7.84775 63.8171 5.81065 62.6712C3.77354 61.5254 1.86376 60.2522 0.335938 58.7244L13.4498 44.4647C14.9776 46.1198 17.0147 47.5203 19.4338 48.7935C21.9801 50.0667 24.5265 50.7033 27.2002 50.7033C28.3461 50.7033 29.4919 50.4486 30.5105 50.0667C31.529 49.6847 32.0383 48.7935 32.0383 47.6476C32.0383 47.011 31.911 46.5018 31.529 46.1198C31.1471 45.7378 30.6378 45.2286 29.7466 44.8466C28.8553 44.3373 27.7095 43.9554 26.309 43.3188C24.7811 42.8095 22.9987 42.1729 20.7069 41.409C18.5425 40.6451 16.5054 39.7539 14.4683 38.8626C12.4312 37.8441 10.6488 36.6982 9.12093 35.1704C7.59311 33.7699 6.31992 31.9874 5.42869 29.9503C4.53746 27.9132 4.02818 25.4942 4.02818 22.6931C4.02818 18.7463 4.7921 15.3087 6.44724 12.5076C8.10238 9.70663 10.1395 7.41489 12.8132 5.63243C15.3596 3.84996 18.2879 2.57677 21.4709 1.81286C24.6538 1.04895 27.8368 0.666992 31.0198 0.666992C35.2213 0.666992 39.5501 1.43091 44.0063 3.08605C48.3351 4.74119 52.282 7.03293 55.5923 10.2159L42.0965 23.839C40.696 22.0566 38.9135 20.656 36.7491 19.7648C34.5847 18.8736 32.6749 18.3643 31.0198 18.3643C29.4919 18.3643 28.2188 18.6189 27.2002 19.0009C26.1817 19.5102 25.7997 20.1468 25.7997 21.1653C25.7997 22.1839 26.309 22.8205 27.3275 23.3297C28.3461 23.839 30.0012 24.4756 32.1656 25.1122C34.4574 25.8761 36.8764 26.64 39.4228 27.6586C41.9692 28.6771 44.2609 29.823 46.4253 31.4781C48.5898 33.006 50.3722 34.9158 51.7727 37.2075C53.1732 39.4992 53.8098 42.1729 53.8098 45.6105C53.8098 49.4301 53.0459 52.8677 51.5181 55.6687C49.9903 58.597 47.9532 60.8888 45.4068 62.7986C42.8604 64.7084 40.0594 66.1089 36.8764 67.0001C33.8208 67.8913 30.6378 68.4006 27.3275 68.4006Z" fill="#081111"/>
<path fill-rule="evenodd" clip-rule="evenodd" d="M92.0184 36.4433C92.0184 34.7881 91.3818 33.3876 90.1086 32.2418C88.8354 31.0959 87.1803 30.5866 85.0159 30.5866C82.7241 30.5866 80.9417 31.2232 79.6685 32.4964C78.3953 33.7696 77.6314 35.0428 77.5041 36.4433H92.0184ZM110.098 43.1912C110.098 43.9551 110.098 44.719 110.098 45.6102C110.098 46.3741 109.97 47.1381 109.97 47.6473H77.7587C77.7587 48.5386 78.1407 49.3025 78.6499 49.9391C79.1592 50.5757 79.7958 51.2123 80.5597 51.7215C81.3236 52.2308 82.2149 52.6128 83.1061 52.8674C83.9973 53.122 85.0159 53.2494 85.9071 53.2494C87.8169 53.2494 89.472 52.8674 90.7452 52.2308C92.0184 51.5942 93.037 50.703 93.6736 49.9391L108.57 57.4509C106.405 60.8885 103.35 63.5622 99.4029 65.5993C95.3287 67.6364 90.7452 68.5276 85.3978 68.5276C81.9602 68.5276 78.6499 68.0183 75.3397 66.8725C72.0294 65.7266 69.101 64.0715 66.682 61.907C64.1356 59.7426 62.0985 57.0689 60.698 53.886C59.1702 50.703 58.4062 47.0107 58.4062 42.6819C58.4062 38.735 59.0428 35.1701 60.4433 31.9871C61.8439 28.8042 63.7536 26.1305 66.1727 23.966C68.5918 21.8016 71.3928 20.0192 74.5757 18.8733C77.7587 17.7274 81.3236 17.0908 85.0159 17.0908C88.7081 17.0908 92.1457 17.7274 95.3287 19.0006C98.3844 20.2738 101.058 22.0563 103.222 24.4753C105.387 26.767 107.169 29.5681 108.315 32.751C109.461 35.934 110.098 39.4989 110.098 43.1912Z" fill="#081111"/>
<path fill-rule="evenodd" clip-rule="evenodd" d="M186.488 33.8971V18.8735H176.175V8.17871H155.804V18.8735H150.966H149.184H140.653V8.17871H120.282V18.8735H113.789V33.8971H120.537V50.9578C120.537 56.8145 122.065 61.016 125.12 63.817C128.176 66.618 133.014 67.8912 139.38 67.8912C141.545 67.8912 143.582 67.7639 145.619 67.382C147.529 67.1273 149.056 66.7454 150.202 66.2361V51.8491C149.82 51.9764 149.184 52.1037 148.42 52.231C147.656 52.3583 147.019 52.3583 146.383 52.3583C144.6 52.3583 143.2 51.9764 142.308 51.0851C141.29 50.3212 140.781 48.6661 140.781 46.3744V33.8971H149.311H151.093H155.932V50.9578C155.932 56.8145 157.459 61.016 160.515 63.817C163.571 66.618 168.281 67.8912 174.775 67.8912C176.939 67.8912 178.976 67.7639 181.013 67.382C182.923 67.1273 184.451 66.7454 185.597 66.2361V51.8491C185.215 51.9764 184.578 52.1037 183.814 52.231C183.05 52.3583 182.414 52.3583 181.777 52.3583C179.995 52.3583 178.594 51.9764 177.703 51.0851C176.685 50.3212 176.175 48.6661 176.175 46.3744V33.8971H186.488Z" fill="#081111"/>
<path fill-rule="evenodd" clip-rule="evenodd" d="M193.492 18.873H214.5V66.6176H193.492V18.873Z" fill="#081111"/>
<path fill-rule="evenodd" clip-rule="evenodd" d="M221.499 18.8738H241.87V24.0938H241.997C243.143 22.3114 245.053 20.7836 247.345 19.5104C249.764 18.2372 252.438 17.6006 255.493 17.6006C258.804 17.6006 261.605 18.2372 263.769 19.383C265.933 20.6562 267.716 22.1841 268.989 24.0938C270.262 26.0036 271.153 28.168 271.663 30.4598C272.172 32.8788 272.427 35.1706 272.427 37.5896V66.6183H251.419V41.1546C251.419 38.7355 251.037 37.0804 250.273 36.0618C249.509 35.0433 248.363 34.6613 246.836 34.6613C245.435 34.6613 244.289 35.1706 243.398 36.3164C242.507 37.4623 242.125 39.1175 242.125 41.1546V66.491H221.117V18.8738H221.499Z" fill="#081111"/>
<path fill-rule="evenodd" clip-rule="evenodd" d="M297.892 42.5551C297.892 44.8468 298.528 46.7566 299.929 48.2844C301.202 49.8122 303.239 50.5761 305.785 50.5761C308.204 50.5761 310.241 49.8122 311.769 48.1571C313.297 46.6293 313.934 44.7195 313.934 42.4277C313.934 40.2633 313.17 38.4809 311.769 36.953C310.241 35.4252 308.332 34.534 305.785 34.534C303.239 34.534 301.329 35.2979 299.929 36.953C298.655 38.6082 297.892 40.3906 297.892 42.5551ZM278.539 42.5551C278.539 39.4994 279.048 36.4438 279.94 33.5154C280.831 30.5871 282.231 27.9134 284.014 25.4944C285.796 23.2026 288.088 21.2928 290.762 19.765C293.435 18.3645 296.618 17.6006 300.183 17.6006C302.73 17.6006 305.276 18.1099 307.695 19.0011C310.114 20.0196 312.151 21.5475 313.679 23.5846H313.934V18.7465H333.668V61.5256C333.668 66.7456 332.777 71.0745 331.122 74.5121C329.467 77.9497 327.175 80.7507 324.374 82.6605C321.573 84.6976 318.39 86.0981 314.825 86.862C311.26 87.6259 307.568 88.1352 304.003 88.1352C299.419 88.1352 294.963 87.4986 290.38 86.3527C285.796 85.2069 281.849 83.4244 278.539 81.1327L287.706 67.2549C289.998 69.0374 292.417 70.3106 294.963 71.0745C297.51 71.8384 299.929 72.3477 302.22 72.3477C303.748 72.3477 305.149 72.093 306.549 71.7111C307.95 71.3291 309.096 70.6925 310.114 69.9286C311.133 69.1647 311.897 68.2735 312.533 67.1276C313.17 65.9817 313.424 64.7085 313.424 63.308V61.2709H313.17C312.024 62.5441 310.369 63.8173 308.077 64.8359C305.785 65.8544 303.239 66.3637 300.311 66.3637C296.618 66.3637 293.435 65.7271 290.634 64.4539C287.961 63.1807 285.669 61.3983 283.886 59.2338C282.104 57.0694 280.703 54.523 279.812 51.5947C278.921 48.7937 278.539 45.738 278.539 42.5551Z" fill="#081111"/>
</svg>
